REM DIRINDEX 1\2,1\3,1\4,1\5\6,1\5\7,1\8
REM DIRNAME cjc115,folder01,folder02,folder03,folder04,folder05,folder06,folder07
TITLE ""
FILE "024 【024】Unit2 (0265 merit_0276 heritage).mp3" MP3
  TRACK 01 AUDIO
    TITLE "0:"
    INDEX 01 00:00:00
  TRACK 02 AUDIO
    TITLE "2:cjc115_0910"
    INDEX 01 00:00:07
  TRACK 03 AUDIO
    TITLE "0:"
    INDEX 01 00:01:17
  TRACK 04 AUDIO
    TITLE "3:cjc115_0911"
    INDEX 01 00:01:26
  TRACK 05 AUDIO
    TITLE "0:"
    INDEX 01 00:03:39
  TRACK 06 AUDIO
    TITLE "4:cjc115_0912"
    INDEX 01 00:03:49
  TRACK 07 AUDIO
    TITLE "0:"
    INDEX 01 00:07:39
  TRACK 08 AUDIO
    TITLE "2:cjc115_0913"
    INDEX 01 00:08:46
  TRACK 09 AUDIO
    TITLE "0:"
    INDEX 01 00:09:65
  TRACK 10 AUDIO
    TITLE "3:cjc115_0914"
    INDEX 01 00:09:69
  TRACK 11 AUDIO
    TITLE "0:"
    INDEX 01 00:13:37
  TRACK 12 AUDIO
    TITLE "4:cjc115_0915"
    INDEX 01 00:13:41
  TRACK 13 AUDIO
    TITLE "0:"
    INDEX 01 00:17:02
  TRACK 14 AUDIO
    TITLE "2:cjc115_0916"
    INDEX 01 00:18:11
  TRACK 15 AUDIO
    TITLE "0:"
    INDEX 01 00:19:26
  TRACK 16 AUDIO
    TITLE "3:cjc115_0917"
    INDEX 01 00:19:36
  TRACK 17 AUDIO
    TITLE "0:"
    INDEX 01 00:21:53
  TRACK 18 AUDIO
    TITLE "4:cjc115_0918"
    INDEX 01 00:21:62
  TRACK 19 AUDIO
    TITLE "0:"
    INDEX 01 00:26:22
  TRACK 20 AUDIO
    TITLE "2:cjc115_0919"
    INDEX 01 00:27:30
  TRACK 21 AUDIO
    TITLE "0:"
    INDEX 01 00:28:35
  TRACK 22 AUDIO
    TITLE "3:cjc115_0920"
    INDEX 01 00:28:45
  TRACK 23 AUDIO
    TITLE "0:"
    INDEX 01 00:30:38
  TRACK 24 AUDIO
    TITLE "4:cjc115_0921"
    INDEX 01 00:30:54
  TRACK 25 AUDIO
    TITLE "0:"
    INDEX 01 00:34:63
  TRACK 26 AUDIO
    TITLE "2:cjc115_0922"
    INDEX 01 00:35:70
  TRACK 27 AUDIO
    TITLE "0:"
    INDEX 01 00:37:44
  TRACK 28 AUDIO
    TITLE "3:cjc115_0923"
    INDEX 01 00:37:48
  TRACK 29 AUDIO
    TITLE "0:"
    INDEX 01 00:39:13
  TRACK 30 AUDIO
    TITLE "4:cjc115_0924"
    INDEX 01 00:39:17
  TRACK 31 AUDIO
    TITLE "0:"
    INDEX 01 00:44:16
  TRACK 32 AUDIO
    TITLE "2:cjc115_0925"
    INDEX 01 00:45:24
  TRACK 33 AUDIO
    TITLE "0:"
    INDEX 01 00:46:45
  TRACK 34 AUDIO
    TITLE "3:cjc115_0926"
    INDEX 01 00:46:51
  TRACK 35 AUDIO
    TITLE "0:"
    INDEX 01 00:50:35
  TRACK 36 AUDIO
    TITLE "4:cjc115_0927"
    INDEX 01 00:50:44
  TRACK 37 AUDIO
    TITLE "0:"
    INDEX 01 00:54:23
  TRACK 38 AUDIO
    TITLE "2:cjc115_0928"
    INDEX 01 00:55:32
  TRACK 39 AUDIO
    TITLE "0:"
    INDEX 01 00:56:59
  TRACK 40 AUDIO
    TITLE "3:cjc115_0929"
    INDEX 01 00:56:69
  TRACK 41 AUDIO
    TITLE "0:"
    INDEX 01 00:58:11
  TRACK 42 AUDIO
    TITLE "4:cjc115_0930"
    INDEX 01 00:58:20
  TRACK 43 AUDIO
    TITLE "0:"
    INDEX 01 01:01:74
  TRACK 44 AUDIO
    TITLE "2:cjc115_0931"
    INDEX 01 01:03:10
  TRACK 45 AUDIO
    TITLE "0:"
    INDEX 01 01:04:23
  TRACK 46 AUDIO
    TITLE "3:cjc115_0932"
    INDEX 01 01:04:31
  TRACK 47 AUDIO
    TITLE "0:"
    INDEX 01 01:07:02
  TRACK 48 AUDIO
    TITLE "4:cjc115_0933"
    INDEX 01 01:07:10
  TRACK 49 AUDIO
    TITLE "0:"
    INDEX 01 01:10:24
  TRACK 50 AUDIO
    TITLE "2:cjc115_0934"
    INDEX 01 01:11:31
  TRACK 51 AUDIO
    TITLE "0:"
    INDEX 01 01:12:48
  TRACK 52 AUDIO
    TITLE "3:cjc115_0935"
    INDEX 01 01:12:54
  TRACK 53 AUDIO
    TITLE "0:"
    INDEX 01 01:15:21
  TRACK 54 AUDIO
    TITLE "4:cjc115_0936"
    INDEX 01 01:15:27
  TRACK 55 AUDIO
    TITLE "0:"
    INDEX 01 01:20:12
  TRACK 56 AUDIO
    TITLE "2:cjc115_0937"
    INDEX 01 01:21:21
  TRACK 57 AUDIO
    TITLE "0:"
    INDEX 01 01:22:39
  TRACK 58 AUDIO
    TITLE "3:cjc115_0938"
    INDEX 01 01:22:44
  TRACK 59 AUDIO
    TITLE "0:"
    INDEX 01 01:23:62
  TRACK 60 AUDIO
    TITLE "4:cjc115_0939"
    INDEX 01 01:23:69
  TRACK 61 AUDIO
    TITLE "0:"
    INDEX 01 01:28:35
  TRACK 62 AUDIO
    TITLE "2:cjc115_0940"
    INDEX 01 01:29:45
  TRACK 63 AUDIO
    TITLE "0:"
    INDEX 01 01:30:62
  TRACK 64 AUDIO
    TITLE "3:cjc115_0941"
    INDEX 01 01:30:71
  TRACK 65 AUDIO
    TITLE "0:"
    INDEX 01 01:33:05
  TRACK 66 AUDIO
    TITLE "4:cjc115_0942"
    INDEX 01 01:33:11
  TRACK 67 AUDIO
    TITLE "0:"
    INDEX 01 01:37:26
  TRACK 68 AUDIO
    TITLE "2:cjc115_0943"
    INDEX 01 01:38:34
  TRACK 69 AUDIO
    TITLE "0:"
    INDEX 01 01:39:57
  TRACK 70 AUDIO
    TITLE "3:cjc115_0944"
    INDEX 01 01:39:64
  TRACK 71 AUDIO
    TITLE "0:"
    INDEX 01 01:40:62
  TRACK 72 AUDIO
    TITLE "4:cjc115_0945"
    INDEX 01 01:40:72
  TRACK 73 AUDIO
    TITLE "0:"
    INDEX 01 01:46:51
